<svg width="110" height="110" viewBox="0 0 110 110" fill="none" xmlns="http://www.w3.org/2000/svg">
<circle cx="55" cy="55" r="50" stroke="#FFA500" stroke-width="10"/>
<path d="M72.107 37.8072C64.504 24.7309 45.496 24.7309 37.893 37.8072L17.6759 72.5783C10.0729 85.6546 19.5768 102 34.7829 102H75.2171C90.4232 102 99.9271 85.6546 92.3241 72.5783L72.107 37.8072ZM45.6687 42.2651C49.8159 35.1325 60.1841 35.1325 64.3313 42.2651L84.5484 77.0361C88.6306 84.0572 83.6712 92.8065 75.6038 93.0782L75.2171 93.0843H34.7829C26.6182 93.0843 21.467 84.4448 25.264 77.3714L25.4516 77.0361L45.6687 42.2651Z" fill="#FFA500"/>
<path d="M72.107 72.1928C64.504 85.2691 45.496 85.2691 37.893 72.1928L17.6759 37.4217C10.0729 24.3454 19.5768 8 34.7829 8H75.2171C90.4232 8 99.9271 24.3454 92.3241 37.4217L72.107 72.1928ZM45.6687 67.7349C49.8159 74.8675 60.1841 74.8675 64.3313 67.7349L84.5484 32.9639C88.6306 25.9428 83.6712 17.1935 75.6038 16.9218L75.2171 16.9157H34.7829C26.6182 16.9157 21.467 25.5552 25.264 32.6286L25.4516 32.9639L45.6687 67.7349Z" fill="#FFA500"/>
</svg>
